<svg xmlns="http://www.w3.org/2000/svg" viewBox="17.104 29.92 366.72 72" width="366.72" height="72" role="img" aria-label="Kontala">
  <title>Kontala</title>
  <path transform="translate(10.000 100.000) scale(0.096000 -0.096000)" d="M560 0 323 341H224L519 730H733L469 382V453L784 0ZM74 0V730H260V0Z" fill="#002d63"/>
  <path transform="translate(82.592 100.000) scale(0.096000 -0.096000)" d="M341 -20Q268 -20 211.0 2.0Q154 24 114.5 63.0Q75 102 54.5 153.0Q34 204 34 262V286Q34 346 55.5 398.0Q77 450 117.0 489.0Q157 528 214.0 550.0Q271 572 341 572Q412 572 468.5 550.0Q525 528 565.0 489.0Q605 450 626.5 398.0Q648 346 648 286V262Q648 204 627.5 153.0Q607 102 567.5 63.0Q528 24 471.0 2.0Q414 -20 341 -20ZM341 132Q383 132 410.5 150.0Q438 168 452.0 200.5Q466 233 466 274Q466 317 451.5 349.5Q437 382 409.0 401.0Q381 420 341 420Q301 420 273.0 401.0Q245 382 230.5 349.5Q216 317 216 274Q216 233 230.0 200.5Q244 168 272.0 150.0Q300 132 341 132Z" fill="#002d63"/>
  <path transform="translate(146.064 100.000) scale(0.096000 -0.096000)" d="M66 0V552H210V315H202Q202 401 224.0 457.5Q246 514 289.5 542.0Q333 570 395 570H403Q497 570 548.5 507.5Q600 445 600 316V0H418V321Q418 359 395.5 383.5Q373 408 334 408Q295 408 271.5 383.5Q248 359 248 319V0Z" fill="#002d63"/>
  <path transform="translate(207.040 100.000) scale(0.096000 -0.096000)" d="M329 -8Q239 -8 185.5 14.0Q132 36 108.0 87.0Q84 138 84 225L85 696H253L252 220Q252 183 271.5 163.5Q291 144 328 144H404V-8ZM4 420V552H404V420Z" fill="#2d6a4f"/>
  <path transform="translate(246.896 100.000) scale(0.096000 -0.096000)" d="M400 0V162H370V335Q370 373 352.5 391.5Q335 410 295 410Q276 410 239.0 409.0Q202 408 161.0 406.0Q120 404 86 402V554Q110 556 143.0 558.0Q176 560 211.5 561.0Q247 562 277 562Q362 562 421.5 537.0Q481 512 512.5 462.0Q544 412 544 335V0ZM225 -14Q167 -14 122.0 7.0Q77 28 51.5 67.5Q26 107 26 162Q26 224 59.0 262.5Q92 301 150.0 319.0Q208 337 283 337H390V243H283Q246 243 226.0 224.5Q206 206 206 175Q206 145 226.0 126.5Q246 108 283 108Q307 108 325.5 116.5Q344 125 356.0 146.0Q368 167 370 204L412 164Q407 107 384.5 67.5Q362 28 322.5 7.0Q283 -14 225 -14Z" fill="#2d6a4f"/>
  <path transform="translate(302.496 100.000) scale(0.096000 -0.096000)" d="M74 0V730H256V0ZM12 598V730H256V598Z" fill="#2d6a4f"/>
  <path transform="translate(331.600 100.000) scale(0.096000 -0.096000)" d="M400 0V162H370V335Q370 373 352.5 391.5Q335 410 295 410Q276 410 239.0 409.0Q202 408 161.0 406.0Q120 404 86 402V554Q110 556 143.0 558.0Q176 560 211.5 561.0Q247 562 277 562Q362 562 421.5 537.0Q481 512 512.5 462.0Q544 412 544 335V0ZM225 -14Q167 -14 122.0 7.0Q77 28 51.5 67.5Q26 107 26 162Q26 224 59.0 262.5Q92 301 150.0 319.0Q208 337 283 337H390V243H283Q246 243 226.0 224.5Q206 206 206 175Q206 145 226.0 126.5Q246 108 283 108Q307 108 325.5 116.5Q344 125 356.0 146.0Q368 167 370 204L412 164Q407 107 384.5 67.5Q362 28 322.5 7.0Q283 -14 225 -14Z" fill="#2d6a4f"/>
</svg>
